<?xml version="1.0" encoding="utf-8"?>
<!-- Generator: Adobe Illustrator 25.4.1, SVG Export Plug-In . SVG Version: 6.00 Build 0)  -->
<svg version="1.1" id="Layer_1" xmlns="http://www.w3.org/2000/svg" xmlns:xlink="http://www.w3.org/1999/xlink" x="0px" y="0px"
	 viewBox="0 0 2000 2000" style="enable-background:new 0 0 2000 2000;" xml:space="preserve">
<style type="text/css">
	.st0{display:none;}
	.st1{display:inline;fill:#FFFFFF;}
	.st2{fill:#F7F0E3;}
	.st3{fill:#FFFFFF;}
	.st4{fill:#E9DDCA;}
	.st5{fill:#E49B31;}
	.st6{fill:#FBC343;}
	.st7{fill:#D3DFFF;}
	.st8{fill:#102048;}
	.st9{fill:#F9B384;}
	.st10{fill:#E28B6D;}
	.st11{fill:#3A6BEA;}
	.st12{opacity:0.8;}
	.st13{opacity:0.4;fill:#EB5D60;enable-background:new    ;}
	.st14{fill:#1F3C88;}
</style>
<g id="BACKGROUND" class="st0">
	<rect class="st1" width="2000" height="2000"/>
</g>
<g id="OBJECTS">
	<path class="st2" d="M1711.3,1323c-24.1-54.8-70.4-100.6-126-123.1c-57.9-23.4-124.4-14.9-185.4-22.8c-53-6.8-91.2-30.5-122.8-72.5
		c-30.3-40.3-57.5-84.9-107-103.5c-39.2-14.7-83.7-10.6-122.6,4.7c-71.7,28.2-125.9,88.3-171.5,148.2
		c-41.7,54.7-75.6,114.6-152.7,116.5s-150.5-42-228.1-30.4c-102.6,15.4-188,100.8-205.9,202.5c-16.8,95.3,25.3,187.7,97.6,242
		h1243.2C1721.2,1588,1769.1,1454.4,1711.3,1323z"/>
	<path class="st3" d="M587.4,1684.6h3.4c24.3-26.9,42.7-58.6,54.2-93c19.1-56.9,18.3-116.6-2.3-168.2c-10.4-26-25.5-50.3-40-73.8
		c-14.8-23.8-30-48.4-40.3-74.8c-4.3-11.2-7.5-22.7-9.3-34.6c-0.8-0.1-1.7-0.2-2.6-0.3c1.9,12.2,5.1,24.2,9.6,35.8
		c10.4,26.6,25.8,51.3,40.6,75.2c14.5,23.4,29.5,47.6,39.8,73.4c20.4,51,21.2,110.1,2.2,166.5
		C631.1,1625.7,612.3,1657.6,587.4,1684.6z"/>
	<path class="st3" d="M1624.1,1576.2c25.6,5.5,50.3,10.4,74.2,13.4c0.4-0.8,0.8-1.6,1.2-2.4c-24.1-3.1-49-8-74.9-13.5
		c-39.4-8.4-82-17.5-124.3-17.5c-26.2,0-52.2,3.5-77.3,12.8c-9.5,3.5-18.7,8-27.4,13.3c-22.6-9.7-45.4-20.2-67.9-31.7
		c16.3-12.3,32.9-24.4,49.6-36.1c124-86.6,238.4-135.7,348.9-149.6c-0.2-0.8-0.4-1.6-0.7-2.4c-110.8,14-225.5,63.2-349.7,150
		c-17,11.9-33.9,24.2-50.6,36.8c-25.6-13.2-50.5-27.6-74.6-43.4c-43.9-28.8-96.2-69.9-141.9-124.5c177-19.9,357.1-44.9,504.2-143.2
		c5.6-3.7,11.8-8.1,18.2-13.1c-0.7-0.5-1.4-1-2.1-1.5c-6.1,4.8-12.1,9-17.4,12.6c-147.1,98.3-327.6,123.1-504.8,143
		c-32.3-39-61.1-84.9-81.1-138c-31.2-82.7-29.6-163.8,4.5-222.6c1.5-2.6,3-5.1,4.7-7.6c-1.4,0.7-2.8,1.3-4.2,2
		c-0.9,1.4-1.7,2.9-2.6,4.3c-34.5,59.4-36.2,141.3-4.7,224.7c19.9,52.8,48.5,98.4,80.5,137.4c-10.3,1.2-20.5,2.3-30.7,3.4
		c-36.9,4.1-75,8.3-112.1,13c-13.5,1.8-27.3,3.8-41,6.3c-29.3-61.9-61.6-122.3-103.2-174.1c-0.6,0.6-1.2,1.2-1.8,1.8
		c41.3,51.4,73.3,111.3,102.5,172.8c-59.7,11.4-117.6,32.8-148.6,82.6c-28.9,46.5-28.9,110.8,0.1,191.1c1,2.8,2,5.5,3.1,8.2h2.7
		c-1.1-3-2.3-6-3.4-9.1c-28.7-79.5-28.8-143.1-0.3-188.9c30.6-49.2,88.2-70.3,147.6-81.6c10.5,22,20.5,44,30.4,66l1.1,2.4
		c34.5,76.2,70.2,149.8,117,211.2h3.1c-47.2-61.6-83.1-135.6-117.8-212.3l-1.1-2.4c-9.9-21.8-19.8-43.7-30-65.4
		c13.4-2.5,26.9-4.5,40.2-6.2c37-4.8,75.2-9,112-13c10.8-1.2,21.6-2.4,32.4-3.6c46.1,55.5,99,97.2,143.5,126.3
		c23.8,15.6,48.5,29.9,73.8,43c-42.5,32.2-83.9,66-124.3,99c-14,11.4-28.1,23-42.4,34.6h4c13.5-10.9,26.8-21.8,40-32.6
		c40.7-33.3,82.3-67.4,125.2-99.7c22.4,11.5,45,22,67.5,31.7c-30.8,19.6-55.9,49.9-71.1,86.7c-1.9,4.6-3.6,9.3-5.1,13.9h2.6
		c1.4-4.4,3-8.7,4.8-13c15.2-36.9,40.5-67.2,71.6-86.5c62.9,26.7,124.8,46.6,177.9,62.3l2,0.6c22.4,6.6,45.3,13.4,65.5,24.3
		c0.6-0.7,1.1-1.3,1.7-1.9c-20.6-11.2-43.8-18.1-66.5-24.8l-2-0.6c-52.6-15.6-113.7-35.2-176-61.5c8.1-4.8,16.6-8.9,25.4-12.2
		C1488.7,1547.4,1560.6,1562.7,1624.1,1576.2z"/>
	<path class="st3" d="M393.1,1414.3c11,45.2,6.1,94-13.5,133.9c-12.9,26.1-31.4,49.8-54.3,70.1c0.5,0.7,0.9,1.4,1.4,2.1
		c23.2-20.6,42.1-44.6,55.2-71.1c19.9-40.4,24.9-89.9,13.7-135.6c-8.7-35.8-26.3-66-50.6-87.9c-0.5,0.6-1.1,1.3-1.6,1.9
		C367.2,1349.2,384.5,1379.1,393.1,1414.3z"/>
	<path class="st2" d="M959,841.7c21.7,22.3,31.5,59.7,19.5,94.3c-11.6,33.5-37.1,61.2-67.7,79c-24.6,14.3-56.8,22.2-81,7.2
		c-18.1-11.2-27.5-33.2-28-54.5s6.6-42.1,15.5-61.4c12.5-27.3,29.3-53.8,54.3-70.4C906,813,938,820.3,959,841.7z"/>
	<path class="st4" d="M670.3,451.5H489.9V371h180.3V451.5z M493.7,447.8h172.8v-73.1H493.7L493.7,447.8z"/>
	<path class="st4" d="M553,528.6H372.6V448H553V528.6z M376.4,524.8h172.8v-73.1H376.4L376.4,524.8z"/>
	<path class="st5" d="M1696.4,614.4c-11.7-38.8-32.2-74.5-61.6-107.1s-69.6-59.5-120.5-80.8c-50.9-21.3-115.6-31.9-194-31.9
		c-62.6,0-126.3,8.4-191.3,25.3s-121.4,41-169.3,72.3l62.3,171l-33.4,27l48.4,14.2c47.8-25,91.3-43.2,130.6-54.5
		c39.3-11.3,81-16.9,125.1-16.9c44.1,0,77.5,10.6,100.2,31.9c22.7,21.3,34,47,34,77c0,36.3-11.6,68.6-34.9,96.7
		c-23.3,28.2-49,56.7-77.3,85.5c-19.6,20-38.6,40.6-57,61.9c-18.4,21.3-34.7,44.3-48.7,68.6c-14.3,24.9-25.7,51.4-34,78.9
		c-8.6,28.2-12.9,59.8-12.9,94.8c0,11.3,0.2,24.8,0.9,40.4c0.1,2.9,0.3,5.7,0.4,8.5h-45.8l49.9,33.8h242.8
		c-1.3-8.7-1.9-17.5-1.8-26.3v-22.6c0.1-21.6,4.5-43,12.9-62.9c8.7-20.8,19.5-40.6,32.2-59.2c13-18.9,27.4-36.8,43.2-53.5
		c15.9-16.9,31.3-32.9,46-47.9c19.6-20,39.8-41.3,60.7-63.8c20.5-22.1,39-46,55.2-71.4c16.2-25.7,29.5-53.1,39.5-81.8
		c10.4-29.4,15.7-61.7,15.7-96.7C1713.9,690.1,1708.1,653.2,1696.4,614.4z"/>
	<path class="st6" d="M1241.2,621.2c-43.7,0-84.9,5.4-123.6,16.3c-38.7,10.9-81.8,28.5-129.1,52.7l-76.4-205.4
		c47.3-30.3,103.1-53.6,167.3-70c64.2-16.4,127.3-24.5,189.1-24.5c77.5,0,141.4,10.3,191.7,30.9c50.3,20.6,90,46.6,119.1,78.2
		c29.1,31.5,49.4,66.1,60.9,103.6c11.5,37.5,17.3,73.3,17.3,107.2c0,34-5.2,65.2-15.5,93.6c-9.9,27.8-23.1,54.3-39.1,79.1
		c-16.1,24.6-34.3,47.7-54.6,69.1c-20.6,21.8-40.6,42.4-60,61.8c-14.6,14.6-29.7,30-45.4,46.4c-15.6,16.1-29.9,33.4-42.7,51.8
		c-12.6,17.9-23.3,37.1-31.8,57.3c-8.3,19.2-12.6,39.9-12.7,60.9v21.8c-0.1,8.5,0.5,17,1.8,25.4h-240c-2.6-13.5-4.2-27.2-4.6-40.9
		c-0.7-15.2-0.9-28.2-0.9-39.1c0-33.9,4.2-64.5,12.7-91.8c8.2-26.7,19.5-52.3,33.6-76.3c13.9-23.6,30.1-45.9,48.3-66.4
		c18.2-20.6,37-40.6,56.3-60c27.9-27.9,53.3-55.4,76.4-82.7c23-27.3,34.5-58.5,34.5-93.6c0-29.1-11.2-53.9-33.6-74.6
		S1284.8,621.2,1241.2,621.2z"/>
	<path class="st5" d="M1426.9,1547c0,43.8-14.2,77.6-42.5,101.4c-28.3,23.8-60.4,35.7-96.2,35.8c-35.8,0-67.9-11.9-96.2-35.8
		s-42.5-57.6-42.5-101.4c0-43.7,14.2-77.5,42.5-101.4c43.6-36.8,108.2-45,159.3-19.2C1396.7,1449.4,1426.9,1495.9,1426.9,1547z"/>
	<path class="st6" d="M1379.4,1547c0,43.8-14.2,77.6-42.5,101.4c-28.3,23.8-60.4,35.7-96.2,35.8c-35.8,0-67.9-11.9-96.2-35.8
		s-42.5-57.6-42.5-101.4c0-43.7,14.2-77.5,42.5-101.4c28.3-23.9,60.4-35.8,96.2-35.8c35.8,0,67.8,11.9,96.2,35.8
		C1365.3,1469.5,1379.4,1503.3,1379.4,1547z"/>
	<circle class="st7" cx="634.9" cy="921.6" r="26.2"/>
	
		<ellipse transform="matrix(0.1841 -0.9829 0.9829 0.1841 -418.823 1440.8313)" class="st7" cx="658.5" cy="972.7" rx="14.7" ry="14.8"/>
	<circle class="st7" cx="570.4" cy="789.9" r="103"/>
	<circle class="st3" cx="530.8" cy="789.9" r="13"/>
	<circle class="st3" cx="570.3" cy="789.9" r="13"/>
	<circle class="st3" cx="609.9" cy="789.9" r="13"/>
	<path class="st8" d="M496.6,1632.6l9.6,37.1c2.7,9.8,12,16.3,22.2,15.5c31.5-2.1,97.1-9.9,134.7-37.6l-10.7-53.4
		c-51.7-2.9-100.1-0.1-142,14C500,1611.8,493.9,1622.3,496.6,1632.6z"/>
	<path class="st3" d="M556.9,1662.1c-0.6,0-1-0.4-1.2-0.9l-12.9-46.2c-0.2-0.7,0.2-1.4,0.9-1.5c0,0,0,0,0,0c0.7-0.2,1.3,0.2,1.5,0.8
		c0,0,0,0,0,0l12.9,46.2c0.2,0.7-0.2,1.3-0.8,1.5C557.1,1662.1,557,1662.2,556.9,1662.1L556.9,1662.1z"/>
	<path class="st3" d="M584.8,1655.9c-0.6,0-1.1-0.4-1.2-0.9l-12.9-46.2c-0.2-0.7,0.2-1.4,0.9-1.5c0.7-0.2,1.4,0.2,1.5,0.9l0,0
		l12.9,46.3c0.2,0.7-0.2,1.4-0.9,1.5C585,1655.9,584.9,1655.9,584.8,1655.9z"/>
	<polygon class="st6" points="617.2,1432.1 497,1467.8 586.3,1590.1 714.4,1600.3 891.2,1525.6 824,1424.5 	"/>
	<path class="st6" d="M765.4,1449.1c264-78.1,306.4,155.2-105.5,197.6c-14.5-16.4-31.5-44.8-38.3-68.5l217.5-100.5L765.4,1449.1z"/>
	<path class="st9" d="M776.6,1616.3c-12.3-4-24.2-11.8-24.2-11.8l-42.4,13.3l9.7,46.2l44.1,9C777.2,1648.4,778,1628.3,776.6,1616.3z
		"/>
	<path class="st5" d="M622.6,1579.9l-1.9-3.2c45.4-26.4,161.6-89.7,260.6-108.4l0.7,3.7C783.6,1490.5,667.8,1553.6,622.6,1579.9z"/>
	<path class="st6" d="M617.2,1432.1c-245.7-46.7-309.3,189.4,102.5,231.9c15.3-17.1,26.5-37.4,32.7-59.5
		c-63.3-42.3-134-82.6-211.5-120.9L617.2,1432.1z"/>
	<path class="st5" d="M751.4,1606.2c-11.7-7.4-23.9-15.3-36.8-23.6c-64.7-41.8-138.1-89.2-200.4-116.2l1.5-3.4
		c62.6,27.1,136.1,74.6,201,116.4c12.9,8.3,25.1,16.2,36.7,23.6L751.4,1606.2z"/>
	<path class="st5" d="M436.9,1549.2l-3.3-1.8c9.2-16.7,24-28,43.9-33.5l1,3.6C459.4,1522.9,445.8,1533.2,436.9,1549.2z"/>
	<path class="st5" d="M949.8,1535c-8.8-16-22.5-26.4-41.6-31.7l1-3.6c19.9,5.5,34.7,16.8,43.9,33.5L949.8,1535z"/>
	<path class="st5" d="M696.7,1662l-2.7-2.6c19.7-21.1,31.7-43.3,36.9-67.9l3.7,0.8C729.2,1617.6,716.9,1640.4,696.7,1662z"/>
	<path class="st8" d="M899.2,1602.6c-31.5-19.4-92.5,14.2-107.8,15.8c-4.5,0.5-9.6-0.5-14.7-2.1c1.4,11.9,0.6,32.1-12.8,56.6
		l7.5,1.5c0,0,51.8,19,106.7,7.9C928.6,1672.2,923.9,1617.9,899.2,1602.6z"/>
	<path class="st3" d="M856.2,1666.2c-0.1,0-0.3,0-0.4-0.1c-0.7-0.2-1-0.9-0.8-1.6c3.7-11.8,5.4-35.1-5.5-50.8
		c-0.5-0.5-0.5-1.3,0-1.8c0.5-0.5,1.3-0.5,1.8,0c0.1,0.1,0.2,0.2,0.3,0.4c11.3,16.4,9.7,40.7,5.8,53
		C857.2,1665.9,856.8,1666.2,856.2,1666.2z"/>
	<path class="st3" d="M831.6,1670.9c-0.1,0-0.3,0-0.4-0.1c-0.7-0.2-1-0.9-0.8-1.5c0,0,0,0,0,0c3.7-11.8,5.4-35.1-5.5-50.8
		c-0.4-0.6-0.2-1.3,0.3-1.7c0.6-0.4,1.3-0.2,1.7,0.3c11.3,16.4,9.7,40.7,5.8,53C832.6,1670.6,832.1,1670.9,831.6,1670.9z"/>
	<path class="st9" d="M573.7,1127.7c0,0,61.9-52.6,59.6-62.6c-1.6-7.2-19.2,3.3-19.2,3.3s24.6-29.2,23.3-32.7
		c-2.2-6.3-19.2,5.5-19.2,5.5s11.5-16.5,6-19.2s-17.5,7.5-17.5,7.5s7-9.2,3.7-11.6s-17.5,7.5-17.5,7.5s5.1-11.6-5.7-7.2
		s-86.6,74-86.6,74L573.7,1127.7z"/>
	<path class="st10" d="M599.1,1065.3c-0.3,0-0.6-0.1-0.8-0.3c-10.6-9.7-15.3-12.1-27-15.7c-0.7-0.2-1.1-0.8-0.9-1.5s0.8-1.1,1.5-0.9
		c0.1,0,0.1,0,0.2,0.1c12.1,3.7,17,6.2,28,16.2c0.5,0.5,0.6,1.3,0.1,1.8C599.8,1065.1,599.5,1065.3,599.1,1065.3L599.1,1065.3z"/>
	<path class="st10" d="M580.4,1093.8h-0.2c-0.7-0.1-1.2-0.7-1.1-1.4c1.2-8.7,4-14.1,8.4-16.6c3.8-2.1,8.7-1.9,14.6,0.7
		c0.6,0.3,0.9,1,0.7,1.7s-1,0.9-1.7,0.7c-5.2-2.2-9.3-2.5-12.4-0.8c-3.6,2-6,7-7.1,14.8C581.6,1093.4,581,1093.8,580.4,1093.8z"/>
	<path class="st10" d="M577.5,1041.2c-0.3,0-0.7-0.1-0.9-0.4c-0.5-0.5-0.5-1.3,0-1.8l15.5-14.6c0.5-0.5,1.3-0.5,1.8,0
		c0.5,0.5,0.5,1.3,0,1.8l0,0l-15.5,14.6C578.1,1041.1,577.8,1041.2,577.5,1041.2z"/>
	<path class="st10" d="M591.9,1046.2c-0.7,0-1.3-0.6-1.2-1.3c0-0.3,0.1-0.6,0.3-0.8l14.9-15.5c0.5-0.5,1.2-0.6,1.8-0.1
		c0.5,0.5,0.6,1.2,0.1,1.8c0,0-0.1,0.1-0.1,0.1l-14.9,15.5C592.5,1046.1,592.2,1046.2,591.9,1046.2z"/>
	<path class="st10" d="M606.6,1055c-0.3,0-0.6-0.1-0.8-0.3c-0.5-0.5-0.5-1.3-0.1-1.8l11.7-12.6c0.5-0.5,1.3-0.5,1.8,0
		c0.5,0.5,0.5,1.2,0.1,1.7l-11.7,12.6C607.2,1054.9,606.9,1055,606.6,1055z"/>
	<path class="st11" d="M807.5,1479.6l-226.2,8.8l-25-206.2c0,0,75.7-71.8,104.9-98.3l49.2-2.5C863,1250.7,838,1337.3,807.5,1479.6z"
		/>
	<path class="st11" d="M710.3,1181.3c0,0,174.7,14.9,229.7,134.6c53.9,117.1-167.5,158.8-167.5,158.8L710.3,1181.3z"/>
	<path class="st11" d="M510.7,1207l72.2-87.8l-67.5-40.9c-28.1,19.6-82.6,63.9-128.7,114.1c-10.2,11.1-18.1,24-22.1,38.3
		c-3.3,11.7-4.1,23.9-2.1,35.9l0,0c5,30.7,29.1,54.3,61.3,58.1c27.5,3.2,132.5-5,217.5-30l25-96.5
		C653.4,1190.9,557.9,1189.6,510.7,1207z"/>
	<g class="st12">
		<path class="st3" d="M856,1228.8l1.1-0.3l-2.4-1.4c-12.8,2.9-26,6-39,7.5c-7.8,0.9-34,2.7-41.6-14.7c-3.8-8.7-0.9-18.3,3.4-25.1
			l-1.9-0.5c-4.4,7.2-7.2,17.2-3.2,26.3c8.2,18.6,35.4,16.8,43.5,15.8C829.4,1234.9,843,1231.8,856,1228.8z"/>
		<path class="st3" d="M937.5,1363.7c-8.3-3.2-17-6.6-26-5.7c-15.9,1.5-29.5,17.2-30.3,35c-0.6,12.1,4.1,24.9,12.9,36.1l1.6-1
			c-8.7-10.9-13.2-23.2-12.7-35c0.8-16.9,13.6-31.8,28.6-33.2c8.6-0.8,16.7,2.3,25.2,5.6c3,1.2,6.1,2.4,9.3,3.4
			c0.2-0.6,0.3-1.2,0.5-1.8C943.5,1366,940.5,1364.9,937.5,1363.7z"/>
		<path class="st3" d="M496.8,1304.1c-10.9-9-27.8-11.4-46.5-6.6c-16.6,4.3-30.8,12.8-40.6,24.1c0.6,0.2,1.3,0.4,1.9,0.6
			c9.5-10.7,23.2-18.8,39.2-22.9c18-4.7,34.4-2.4,44.8,6.2c4.8,4.1,8.6,9.3,11,15.2l1.9-0.2C506,1314.2,502,1308.5,496.8,1304.1z"/>
		<path class="st3" d="M398.2,1180.1c20.4-5.1,40.4-12.2,58.8-22.8c7-4,14.8-9.1,20.3-16.6c5.9-8,7.8-17.5,5.2-25.4
			c-1-3-2.8-5.8-5.1-8l-1.4,1.2c2.2,2,3.8,4.6,4.7,7.4c2.4,7.3,0.6,16.2-4.9,23.7c-5.3,7.2-13,12.2-19.7,16.1
			c-17.4,10-36.1,16.9-55.4,21.9L398.2,1180.1z"/>
	</g>
	<path class="st9" d="M726.3,1135.5v3.2l-0.5,49.7l-0.1,5.4c-0.8,17.1-15.2,30.4-32.3,29.6c-16-0.7-28.9-13.6-29.6-29.6l-0.6-61.5
		L726.3,1135.5z"/>
	<path class="st8" d="M726.3,1138.7l-0.5,49.7c-27.6-11.2-39-41.2-39-41.2L726.3,1138.7z"/>
	<path class="st9" d="M737.2,1051.9c9.9,11.9,38.8,79.2,9.5,102.2c-33,25.9-83.2-16.6-83.2-16.6l-6.7-78.5l43.6-11.5L737.2,1051.9z"
		/>
	<path class="st8" d="M634.6,1047.6c0,0-96.7,50.4-17.8,195.8c10.1,18.7,32.5,26.8,51.7,17.7l0,0c19.5-9.3,27.8-32.7,18.5-52.3
		c-0.4-0.8-0.8-1.7-1.3-2.5c-12.9-22.9-25.3-52.4-20-74.3L634.6,1047.6z"/>
	<circle class="st6" cx="643.7" cy="1071.4" r="26.2"/>
	<path class="st8" d="M675.9,1102.8c-2.8-16.3-4.5-27.5,11.9-35.9c0,0,58.1,10.6,69.2-11.3s-5.8-56.5-41.2-32.5
		c-90.6-17.7-102.8,67.1-75.3,95.3l27.1-4.2c5.4-0.8,9.1-5.9,8.3-11.3C675.9,1103,675.9,1102.9,675.9,1102.8z"/>
	<circle class="st8" cx="720.9" cy="1102.9" r="3.9"/>
	<circle class="st8" cx="747" cy="1090" r="3.9"/>
	<path class="st8" d="M744.3,1114.8c-0.3,0-0.5-0.1-0.8-0.3c-0.4-0.4-0.4-1.1,0-1.6c1.5-1.6,3.2-3.9,2.5-5.6s-3.9-2.5-5.3-2.5
		c-3.1,0-4.6-5.5-4.8-6.6c-0.2-0.6,0.1-1.2,0.7-1.4c0.6-0.2,1.2,0.1,1.4,0.7c0,0.1,0,0.1,0,0.2c0.6,2.3,1.8,4.9,2.7,4.9
		c1.5,0,6,0.7,7.3,3.8c1,2.2,0,4.9-3,8C744.9,1114.7,744.6,1114.8,744.3,1114.8z"/>
	<path class="st8" d="M744.5,1129.4c-0.2,0-0.4-0.1-0.6-0.2c-7.3-4.9-14.6-0.8-14.7-0.8c-0.5,0.3-1.2,0.1-1.5-0.4c0,0,0,0,0,0
		c-0.3-0.5-0.1-1.2,0.4-1.5c0.3-0.2,8.6-4.8,17,0.8c0.5,0.3,0.6,1,0.3,1.5c0,0,0,0,0,0C745.2,1129.3,744.9,1129.4,744.5,1129.4z"/>
	<path class="st8" d="M719.2,1086.2c2.2,4.1-1.6,5-6.1,7.3s-9.1,3.3-10.1,1.3s1.7-5.5,6.2-7.9S717.5,1083,719.2,1086.2z"/>
	<path class="st8" d="M735.5,1078.7c1,3.7,3.7,2.1,7.7,1s7.2-3.1,6.8-4.8s-4.1-2.3-8.1-1.3S734.8,1075.8,735.5,1078.7z"/>
	<circle class="st13" cx="703.1" cy="1120.8" r="11.4"/>
	
		<ellipse transform="matrix(0.611 -0.7917 0.7917 0.611 -630.7801 958.4153)" class="st9" cx="659.8" cy="1121" rx="15.4" ry="17.5"/>
	<path class="st8" d="M666.6,1126.7c-0.6,0-1.1-0.5-1.1-1.1c0-3.2-1.6-6.2-4.2-8c-2.1-1.5-4.8-1.8-7.2-0.9c-0.6,0.1-1.2-0.2-1.3-0.8
		c-0.1-0.4,0.1-0.9,0.5-1.2c3.1-1.2,6.5-0.7,9.2,1.2c3.3,2.2,5.2,5.9,5.2,9.8C667.6,1126.2,667.2,1126.7,666.6,1126.7z"/>
	
		<rect x="461.9" y="1227" transform="matrix(0.6788 -0.7343 0.7343 0.6788 -744.2231 755.0766)" class="st8" width="58.1" height="2.5"/>
	<path class="st8" d="M787.9,1389.6l-0.7-2.4c28.7-8.8,56.6-19.2,81.9-50.8l2,1.6C845.3,1370.1,817,1380.7,787.9,1389.6z"/>
	<path class="st7" d="M805.3,1292.8H560.9c-8.8,0-15.9,7.7-15.9,17.2v174.5c0,9.5,7.1,17.2,15.9,17.2h244.4
		c8.8,0,15.9-7.7,15.9-17.2V1310C821.2,1300.5,814.1,1292.8,805.3,1292.8z"/>
	<path class="st14" d="M696,1386.2c1,0,1.7,0.9,1.7,1.8c0,0,0,0,0,0v18.4c0,1-0.7,1.8-1.7,1.8h-25.8c-1,0-1.7-0.9-1.7-1.8V1388
		c0-1,0.7-1.8,1.7-1.8c0,0,0,0,0,0L696,1386.2 M696,1381.2h-25.8c-3.7,0-6.7,3.1-6.7,6.8v18.4c0,3.7,3,6.8,6.7,6.8H696
		c3.7,0,6.7-3.1,6.7-6.8V1388C702.7,1384.3,699.7,1381.2,696,1381.2z"/>
	<rect x="280.3" y="1682.1" class="st8" width="1473.7" height="5"/>
</g>
</svg>
